PathFileType	4	(X/Y/Z) flx_2kg_2.trc																										
DataRate	CameraRate	NumFrames	NumMarkers	Units	OrigDataRate	OrigDataStartFrame	OrigNumFrames																					
100	100	43	9	mm	100	719	821																					
Frame#	Time	gu			centelbow			EpL			centpxt8			centijc7			ij			ts			aa			ai		
		X1	Y1	Z1	X2	Y2	Z2	X3	Y3	Z3	X4	Y4	Z4	X5	Y5	Z5	X6	Y6	Z6	X7	Y7	Z7	X8	Y8	Z8	X9	Y9	Z9  
718	7.18	-79.449	-16.119	162.41	-141.824	-252.809	195.147	-123.023	-249.996	221.186	-46.816	-153.158	-8.669	-46.816	31.938	-8.669	0	0	0	-134.403	31.018	54.138	-104.388	20.62	169.098	-156.052	-80.409	55.119
719	7.19	-79.33	-15.804	162.415	-141.461	-252.554	195.175	-122.782	-249.677	221.295	-46.816	-153.158	-8.669	-46.816	31.938	-8.669	0	0	0	-134.456	31.088	54.163	-104.541	20.844	169.163	-155.998	-80.359	55.244
720	7.2	-79.168	-15.69	162.516	-141.248	-252.451	195.297	-122.691	-249.524	221.499	-46.816	-153.158	-8.669	-46.816	31.938	-8.669	0	0	0	-134.494	31.056	54.178	-104.685	20.96	169.219	-155.959	-80.405	55.362
721	7.21	-79.132	-15.738	162.677	-141.34	-252.465	195.467	-122.892	-249.507	221.741	-46.816	-153.158	-8.669	-46.816	31.938	-8.669	0	0	0	-134.392	30.888	54.22	-104.693	20.921	169.3	-155.839	-80.575	55.503
722	7.22	-79.212	-15.733	162.743	-141.613	-252.401	195.579	-123.246	-249.424	221.908	-46.816	-153.158	-8.669	-46.816	31.938	-8.669	0	0	0	-134.235	30.779	54.22	-104.632	20.932	169.336	-155.687	-80.682	55.603
723	7.23	-79.254	-15.471	162.621	-141.784	-252.092	195.557	-123.469	-249.095	221.92	-46.816	-153.158	-8.669	-46.816	31.938	-8.669	0	0	0	-134.195	30.905	54.08	-104.667	21.184	169.224	-155.628	-80.559	55.564
724	7.24	-79.159	-15.131	162.442	-141.78	-251.718	195.452	-123.503	-248.706	221.839	-46.816	-153.158	-8.669	-46.816	31.938	-8.669	0	0	0	-134.278	31.098	53.829	-104.816	21.493	169.001	-155.684	-80.369	55.407
725	7.25	-79.023	-15.113	162.367	-141.822	-251.654	195.364	-123.58	-248.644	221.776	-46.816	-153.158	-8.669	-46.816	31.938	-8.669	0	0	0	-134.361	31.056	53.653	-104.981	21.525	168.852	-155.789	-80.406	55.293
726	7.26	-79.021	-15.431	162.362	-142.072	-251.917	195.277	-123.863	-248.923	221.713	-46.816	-153.158	-8.669	-46.816	31.938	-8.669	0	0	0	-134.383	30.815	53.657	-105.102	21.314	168.884	-155.878	-80.633	55.324
727	7.27	-79.137	-15.724	162.304	-142.381	-252.173	195.115	-124.2	-249.194	221.573	-46.816	-153.158	-8.669	-46.816	31.938	-8.669	0	0	0	-134.341	30.664	53.718	-105.141	21.171	168.966	-155.88	-80.776	55.389
728	7.28	-79.242	-15.763	162.189	-142.544	-252.212	194.887	-124.393	-249.238	221.366	-46.816	-153.158	-8.669	-46.816	31.938	-8.669	0	0	0	-134.243	30.68	53.663	-105.082	21.189	168.921	-155.779	-80.761	55.329
729	7.29	-79.327	-15.591	162.118	-142.581	-252.071	194.685	-124.472	-249.095	221.192	-46.816	-153.158	-8.669	-46.816	31.938	-8.669	0	0	0	-134.147	30.721	53.495	-105.004	21.229	168.758	-155.665	-80.723	55.151
730	7.3	-79.41	-15.364	162.187	-142.581	-251.886	194.61	-124.527	-248.899	221.154	-46.816	-153.158	-8.669	-46.816	31.938	-8.669	0	0	0	-134.105	30.717	53.346	-104.99	21.223	168.616	-155.624	-80.728	54.996
731	7.31	-79.415	-15.271	162.394	-142.544	-251.824	194.667	-124.559	-248.828	221.256	-46.816	-153.158	-8.669	-46.816	31.938	-8.669	0	0	0	-134.084	30.719	53.261	-105.012	21.225	168.541	-155.614	-80.723	54.905
732	7.32	-79.333	-15.425	162.566	-142.503	-251.987	194.697	-124.588	-248.984	221.333	-46.816	-153.158	-8.669	-46.816	31.938	-8.669	0	0	0	-134.052	30.789	53.178	-105.02	21.294	168.468	-155.585	-80.653	54.815
733	7.33	-79.308	-15.752	162.523	-142.584	-252.301	194.544	-124.727	-249.298	221.218	-46.816	-153.158	-8.669	-46.816	31.938	-8.669	0	0	0	-134.071	30.905	53.105	-105.064	21.411	168.401	-155.602	-80.537	54.737
734	7.34	-79.447	-16.084	162.307	-142.83	-252.615	194.245	-125.014	-249.615	220.947	-46.816	-153.158	-8.669	-46.816	31.938	-8.669	0	0	0	-134.178	30.995	53.116	-105.193	21.507	168.418	-155.715	-80.446	54.75
735	7.35	-79.644	-16.257	162.098	-143.069	-252.787	193.963	-125.289	-249.785	220.689	-46.816	-153.158	-8.669	-46.816	31.938	-8.669	0	0	0	-134.256	31.015	53.193	-105.295	21.534	168.502	-155.813	-80.422	54.835
736	7.36	-79.697	-16.205	162.005	-143.112	-252.744	193.819	-125.37	-249.734	220.569	-46.816	-153.158	-8.669	-46.816	31.938	-8.669	0	0	0	-134.162	30.949	53.239	-105.225	21.47	168.555	-155.77	-80.478	54.893
737	7.37	-79.542	-16.083	162.012	-142.984	-252.616	193.822	-125.28	-249.594	220.596	-46.816	-153.158	-8.669	-46.816	31.938	-8.669	0	0	0	-133.936	30.823	53.26	-105.025	21.336	168.581	-155.633	-80.586	54.924
738	7.38	-79.319	-16.102	162.068	-142.867	-252.603	193.897	-125.19	-249.578	220.689	-46.816	-153.158	-8.669	-46.816	31.938	-8.669	0	0	0	-133.751	30.75	53.332	-104.871	21.244	168.659	-155.55	-80.639	54.999
739	7.39	-79.23	-16.214	162.135	-142.913	-252.68	193.954	-125.251	-249.66	220.756	-46.816	-153.158	-8.669	-46.816	31.938	-8.669	0	0	0	-133.745	30.847	53.395	-104.889	21.319	168.727	-155.616	-80.529	55.057
740	7.4	-79.374	-16.261	162.174	-143.154	-252.707	193.948	-125.498	-249.697	220.755	-46.816	-153.158	-8.669	-46.816	31.938	-8.669	0	0	0	-133.911	31.034	53.323	-105.052	21.497	168.653	-155.802	-80.338	54.982
741	7.41	-79.621	-16.297	162.172	-143.454	-252.735	193.905	-125.8	-249.732	220.714	-46.816	-153.158	-8.669	-46.816	31.938	-8.669	0	0	0	-134.097	31.084	53.178	-105.213	21.548	168.502	-155.984	-80.289	54.841
742	7.42	-79.714	-16.444	162.157	-143.586	-252.872	193.886	-125.928	-249.874	220.693	-46.816	-153.158	-8.669	-46.816	31.938	-8.669	0	0	0	-134.146	30.92	53.105	-105.244	21.384	168.424	-156.042	-80.451	54.774
743	7.43	-79.566	-16.609	162.141	-143.457	-253.027	193.899	-125.792	-250.03	220.702	-46.816	-153.158	-8.669	-46.816	31.938	-8.669	0	0	0	-134.056	30.722	53.111	-105.153	21.184	168.43	-155.975	-80.644	54.784
744	7.44	-79.333	-16.627	162.119	-143.208	-253.046	193.902	-125.537	-250.047	220.7	-46.816	-153.158	-8.669	-46.816	31.938	-8.669	0	0	0	-133.959	30.663	53.156	-105.06	21.128	168.477	-155.89	-80.701	54.835
745	7.45	-79.173	-16.51	162.081	-143.01	-252.94	193.861	-125.334	-249.94	220.656	-46.816	-153.158	-8.669	-46.816	31.938	-8.669	0	0	0	-133.934	30.689	53.197	-105.037	21.162	168.519	-155.868	-80.673	54.884
746	7.46	-79.077	-16.401	161.991	-142.876	-252.843	193.761	-125.195	-249.843	220.553	-46.816	-153.158	-8.669	-46.816	31.938	-8.669	0	0	0	-133.966	30.668	53.143	-105.061	21.142	168.462	-155.904	-80.694	54.834
747	7.47	-78.987	-16.412	161.857	-142.766	-252.859	193.626	-125.078	-249.861	220.414	-46.816	-153.158	-8.669	-46.816	31.938	-8.669	0	0	0	-134.049	30.597	52.986	-105.128	21.062	168.301	-155.983	-80.766	54.67
748	7.48	-78.931	-16.523	161.762	-142.714	-252.969	193.537	-125.022	-249.971	220.322	-46.816	-153.158	-8.669	-46.816	31.938	-8.669	0	0	0	-134.157	30.571	52.887	-105.236	21.025	168.201	-156.074	-80.795	54.555
749	7.49	-78.941	-16.63	161.762	-142.736	-253.072	193.539	-125.045	-250.075	220.324	-46.816	-153.158	-8.669	-46.816	31.938	-8.669	0	0	0	-134.209	30.63	52.971	-105.308	21.08	168.29	-156.1	-80.742	54.625
750	7.5	-78.952	-16.678	161.817	-142.747	-253.121	193.585	-125.059	-250.124	220.373	-46.816	-153.158	-8.669	-46.816	31.938	-8.669	0	0	0	-134.173	30.723	53.149	-105.293	21.174	168.472	-156.045	-80.653	54.795
751	7.51	-78.922	-16.717	161.91	-142.705	-253.167	193.654	-125.023	-250.169	220.446	-46.816	-153.158	-8.669	-46.816	31.938	-8.669	0	0	0	-134.113	30.802	53.251	-105.239	21.25	168.577	-155.977	-80.575	54.891
752	7.52	-78.917	-16.822	162.036	-142.691	-253.279	193.744	-125.02	-250.281	220.543	-46.816	-153.158	-8.669	-46.816	31.938	-8.669	0	0	0	-134.108	30.868	53.218	-105.223	21.31	168.54	-155.967	-80.51	54.852
753	7.53	-78.984	-16.969	162.088	-142.749	-253.434	193.749	-125.089	-250.437	220.555	-46.816	-153.158	-8.669	-46.816	31.938	-8.669	0	0	0	-134.155	30.921	53.078	-105.242	21.355	168.392	-156.003	-80.46	54.708
754	7.54	-79.114	-17.051	161.99	-142.847	-253.532	193.596	-125.195	-250.536	220.408	-46.816	-153.158	-8.669	-46.816	31.938	-8.669	0	0	0	-134.179	30.939	52.911	-105.235	21.363	168.216	-156.011	-80.445	54.533
755	7.55	-79.267	-17.028	161.889	-142.946	-253.531	193.443	-125.306	-250.533	220.262	-46.816	-153.158	-8.669	-46.816	31.938	-8.669	0	0	0	-134.124	30.911	52.803	-105.17	21.324	168.105	-155.946	-80.475	54.413
756	7.56	-79.354	-16.984	161.938	-142.986	-253.505	193.448	-125.364	-250.503	220.279	-46.816	-153.158	-8.669	-46.816	31.938	-8.669	0	0	0	-134.047	30.849	52.782	-105.107	21.254	168.087	-155.871	-80.536	54.381
757	7.57	-79.323	-17.014	162.052	-142.932	-253.547	193.519	-125.331	-250.54	220.363	-46.816	-153.158	-8.669	-46.816	31.938	-8.669	0	0	0	-134.062	30.818	52.838	-105.151	21.215	168.149	-155.889	-80.567	54.425
758	7.58	-79.283	-17.112	162.101	-142.865	-253.66	193.515	-125.281	-250.651	220.37	-46.816	-153.158	-8.669	-46.816	31.938	-8.669	0	0	0	-134.156	30.852	52.949	-105.285	21.243	168.27	-155.971	-80.536	54.519
759	7.59	-79.373	-17.202	162.116	-142.892	-253.774	193.468	-125.323	-250.763	220.332	-46.816	-153.158	-8.669	-46.816	31.938	-8.669	0	0	0	-134.199	30.843	53.08	-105.373	21.226	168.412	-155.997	-80.548	54.63
760	7.6	-79.524	-17.235	162.184	-142.967	-253.838	193.462	-125.412	-250.825	220.335	-46.816	-153.158	-8.669	-46.816	31.938	-8.669	0	0	0	-134.137	30.685	53.19	-105.346	21.058	168.53	-155.938	-80.706	54.724
